# xmcd CD database file
#
# Track frame offsets:
#	150
#	15687
#	28195
#	43572
#	56097
#	70787
#	82952
#	95902
#	107210
#	133815
#	147795
#	164302
#	179847
#	194812
#	219942
#	232727
#
# Disc length: 3286 seconds
#
# Revision: 0
# Processed by: cddbd v1.5.2PL0 Copyright (c) Steve Scherf et al.
# Submitted via: CDex 1.51
#
DISCID=e90cd410
DTITLE=Nat King Cole and Harry Belafonte - Single Hit Parade
DYEAR=1911
DGENRE=Jazz
TTITLE0=Mona Lisa
TTITLE1=Pretend
TTITLE2=Too Young
TTITLE3=Quizas, Quizas, Quizas
TTITLE4=Stardust
TTITLE5=Lave Is A Many Splendored Thing
TTITLE6=Cachisto
TTITLE7=Fascination
TTITLE8=Danny Boy
TTITLE9=Day O
TTITLE10=Matilda
TTITLE11=Island In The Sun
TTITLE12=Hava Nageela
TTITLE13=Cu cu ru cu cu paloma
TTITLE14=Don't Ever Love Me
TTITLE15=Jamaica Farewell
EXTD=YEAR: 1911
EXTT0=
EXTT1=
EXTT2=
EXTT3=
EXTT4=
EXTT5=
EXTT6=
EXTT7=
EXTT8=
EXTT9=
EXTT10=
EXTT11=
EXTT12=
EXTT13=
EXTT14=
EXTT15=
PLAYORDER=
